<svg width="488" height="499" viewBox="0 0 488 499" fill="none" xmlns="http://www.w3.org/2000/svg">
<path d="M409.708 403.442C409.708 406.431 387.543 408.855 360.202 408.855C332.861 408.855 310.697 406.431 310.697 403.442C310.697 400.453 332.861 398.03 360.202 398.03C387.543 398.03 409.708 400.453 409.708 403.442ZM339.395 334.251C339.395 334.251 313.892 330.537 297.739 352.82C297.739 352.82 325.368 359.836 334.295 367.263C343.221 374.691 352.147 373.04 352.147 373.04C352.147 373.04 353.847 340.44 339.395 334.251Z" fill="#CDEEFF"/>
<path d="M332.661 350.461C332.661 350.461 329.95 343.818 330.202 343.713C330.454 343.606 333.913 350.848 333.913 350.848C341.29 353.206 346.696 356.329 347.007 357.032C347.114 357.277 346.998 357.56 346.746 357.665C346.683 357.691 346.616 357.703 346.551 357.703C346.372 357.703 346.201 357.609 346.113 357.449C345.564 356.806 338.522 352.913 329.629 350.662C329.621 350.667 329.615 350.674 329.607 350.679C329.607 350.679 321.467 354.695 321.697 354.549L328.319 350.346C324.031 349.362 314.342 349 314.319 348.735C314.295 348.47 327.235 348.842 332.661 350.461Z" fill="#91C4F6"/>
<path d="M384.24 316.919C384.24 316.919 371.062 314.856 369.788 299.175C368.513 283.494 358.736 264.511 354.06 268.638C349.385 272.765 352.785 287.62 346.409 291.335C340.033 295.048 318.78 301.238 325.156 321.458C331.532 341.679 343.009 340.853 343.009 345.805C343.009 350.757 334.933 361.899 344.709 370.565C354.485 379.231 365.112 374.278 365.112 374.278L384.24 316.919Z" fill="#91C4F6"/>
<path d="M358.189 383.587L356.121 352.929C356.118 352.927 356.115 352.926 356.112 352.924C351.79 349.363 345.95 344.446 346.222 344.476C347.36 344.602 353.323 349.383 356.031 351.596L354.668 331.391C354.609 331.372 354.552 331.346 354.502 331.305C349.498 327.182 342.816 321.698 343.089 321.728C344.414 321.876 351.622 327.684 354.581 330.108L353.469 313.627C353.457 313.619 353.443 313.615 353.432 313.606C350.25 310.985 345.837 307.028 346.109 307.059C346.965 307.154 351.058 310.407 353.38 312.302C353.38 312.302 352.569 296.99 352.842 296.973C353.115 296.955 354.579 315.337 354.579 315.337C356.645 313.157 360.189 309.52 361.013 309.323C361.279 309.259 357.473 313.681 354.668 316.667L355.77 332.99C358.513 330.089 364.572 323.802 365.831 323.499C366.091 323.437 360.26 329.637 355.86 334.322L357.202 354.219C359.547 351.737 364.958 346.113 366.084 345.841C366.35 345.777 361.211 351.375 357.389 355.448C357.359 355.479 357.326 355.505 357.29 355.527L359.179 383.525C359.191 383.707 359.097 383.873 358.947 383.964C358.88 384.005 358.801 384.031 358.716 384.036C358.443 384.054 358.207 383.852 358.189 383.587Z" fill="#CDEEFF"/>
<path d="M415.695 286.795C415.695 286.795 377.439 298.349 367.237 332.187C357.036 366.025 367.237 373.453 367.237 373.453C367.237 373.453 395.291 373.04 408.469 341.679C421.646 310.316 415.695 286.795 415.695 286.795Z" fill="#CDEEFF"/>
<path d="M365.667 375.976L380.701 348.94C380.7 348.936 380.698 348.934 380.697 348.931C378.986 343.684 376.078 336.953 376.248 336.746C376.419 336.539 380.273 344.493 381.355 347.764L391.263 329.947C391.223 329.9 391.19 329.849 391.17 329.788C389.188 323.714 386.531 315.62 386.745 315.787C387.787 316.596 390.713 325.235 391.891 328.815L399.973 314.282C399.968 314.269 399.958 314.258 399.954 314.244C398.695 310.382 397.123 304.753 397.336 304.92C398.009 305.442 399.694 310.309 400.623 313.113C400.623 313.113 408.321 299.725 408.562 299.851C408.803 299.977 399.977 316.302 399.977 316.302C402.922 315.522 407.915 314.27 408.721 314.529C408.981 314.612 403.336 316.393 399.325 317.475L391.32 331.869C395.233 330.828 403.808 328.629 405.039 329.022C405.294 329.104 396.961 331.346 390.668 333.043L380.91 350.59C384.257 349.698 391.919 347.727 393.022 348.078C393.282 348.161 385.863 350.25 380.396 351.727C380.354 351.738 380.311 351.743 380.269 351.744L366.539 376.433C366.45 376.593 366.279 376.685 366.103 376.685C366.023 376.685 365.943 376.666 365.868 376.628C365.627 376.502 365.537 376.209 365.667 375.976Z" fill="#91C4F6"/>
<path d="M356.854 406.457C356.587 406.463 356.312 406.466 356.038 406.466C331.385 406.466 336.909 374.691 336.909 374.691H379.418C379.418 374.691 384 405.847 356.854 406.457Z" fill="#DBA12C"/>
<path d="M356.854 406.457C356.957 406.415 357.062 406.373 357.172 406.329C369.116 401.581 363.502 376.756 363.013 374.691H379.418C379.418 374.691 384 405.847 356.854 406.457Z" fill="#FFC439"/>
<path d="M68.5985 404.741C70.4571 405.829 206.296 406.011 239.739 406.011C273.181 406.011 283.512 324.953 254.15 313.813C224.787 302.674 172.225 212.158 148.896 193.88C125.566 175.603 84.875 170.547 62.088 193.88C39.301 217.213 37.1307 386.324 68.5985 404.741Z" fill="#91C4F6"/>
<path d="M65.8857 377.685C68.8978 381.549 93.3748 389.975 107.3 389.097C162.561 385.614 252.483 385.192 253.245 387.166C254.33 389.975 121.587 390.969 101.332 391.32C81.077 391.671 65.8857 377.685 65.8857 377.685Z" fill="#549BEC"/>
<path d="M270.268 365.495C266.92 386.627 256.082 406.015 239.734 406.015C233.767 406.015 224.513 406.015 213.371 405.985C217.48 398.655 231.88 387.247 234.802 375.928C239.125 359.082 206.582 343.979 203.325 341.527C200.372 339.31 159.487 395.434 151.998 405.808C144.052 405.808 136.198 405.749 128.618 405.719C138.268 391.799 162.318 360.707 159.395 353.112C155.59 343.27 106.394 362.924 99.8793 346.788C93.3645 330.621 114.705 295.155 113.64 292.112C112.544 289.068 97.7181 296.22 83.2576 285.934C68.7667 275.62 96.9872 206.669 94.5822 206.285C92.7859 205.96 80.6087 194.729 76.3773 183.735C95.2822 174.81 119.271 177.351 137.781 186.838C137.781 216.067 137.75 256.557 137.507 262.498C137.141 271.985 220.555 299.382 220.555 299.382L270.268 365.495Z" fill="#549BEC"/>
<path d="M179.388 185.339L207.219 210.892C207.219 210.892 209.39 220.9 208.576 223.797C207.762 226.694 194.534 227.215 194.534 227.215L172.225 212.604L179.388 185.339Z" fill="#D7A28E"/>
<path d="M169.274 406.49L167.403 406.877L169.928 408.357L169.274 406.49Z" fill="#11405C"/>
<path d="M143.968 401.885C143.968 401.885 141.081 402.859 142.354 405.211C143.627 407.563 164.244 420.18 169.947 420.969C175.651 421.759 183.632 415.386 180.572 413.945C177.511 412.504 143.968 401.885 143.968 401.885Z" fill="#11405C"/>
<path d="M146.885 401.355C146.885 401.355 141.489 401.577 142.761 403.929C144.034 406.282 164.652 418.898 170.355 419.688C176.059 420.477 183.632 415.386 180.572 413.945C177.511 412.504 146.885 401.355 146.885 401.355Z" fill="#FFC439"/>
<path d="M163.444 415.119C161.489 413.98 159.212 412.667 156.94 411.306C149.512 406.852 142.129 401.863 146.087 400.572C149.227 399.545 153.15 396.342 155.738 393.988C157.402 392.48 158.511 391.32 158.511 391.32L167.376 396.524L162.226 403.012C162.226 403.012 169.682 409.562 177.166 411.332C182.177 412.516 171.794 419.987 163.444 415.119Z" fill="#D7A28E"/>
<path d="M158.047 413.386C158.047 413.386 170.617 410.33 174.459 413.166C174.459 413.166 172.274 410.672 172.429 408.485C172.429 408.485 169.959 405.864 169.274 406.49C168.209 407.464 172.17 411.427 172.17 411.427C172.17 411.427 160.757 409.556 154.559 411.271L158.047 413.386Z" fill="#2F627C"/>
<path d="M305.935 399.075L304.887 400.629L307.753 399.952L305.935 399.075Z" fill="#11405C"/>
<path d="M284.632 413.113C284.632 413.113 283.29 415.778 285.899 416.577C288.51 417.376 312.298 412.231 316.919 408.891C321.54 405.551 322.58 395.569 319.363 396.639C316.145 397.71 284.632 413.113 284.632 413.113Z" fill="#11405C"/>
<path d="M286.318 410.742C286.318 410.742 282.649 414.59 285.259 415.389C287.869 416.188 311.657 411.042 316.278 407.702C320.899 404.362 322.58 395.569 319.363 396.639C316.145 397.71 286.318 410.742 286.318 410.742Z" fill="#FFC439"/>
<path d="M308.058 409.186C305.844 409.714 303.275 410.34 300.675 410.928C292.171 412.846 283.31 414.355 285.184 410.732C286.667 407.856 279.717 397.217 279.717 397.217L293.01 393.662L298.409 401.426C298.409 401.426 308.453 400.976 315.049 397.113C319.465 394.528 317.517 406.931 308.058 409.186Z" fill="#D7A28E"/>
<path d="M302.97 411.647C302.97 411.647 309.674 400.881 314.459 400.267C314.459 400.267 311.099 399.991 309.622 398.333C309.622 398.333 305.967 398.162 305.935 399.075C305.886 400.495 311.572 400.598 311.572 400.598C311.572 400.598 302.115 407.076 298.96 412.531L302.97 411.647ZM186.135 275.302C186.135 275.302 245.017 289.989 251.799 303.684C258.58 317.378 297.642 393.661 297.642 393.661L280.158 401.811L222.908 332.037C222.908 332.037 168.703 314.838 154.559 307.504C140.415 300.17 143.791 270.1 143.791 270.1L185.971 268.831L186.135 275.302Z" fill="#2F627C"/>
<path d="M297.644 393.664L280.152 401.817L222.92 332.039C222.92 332.039 168.709 314.839 154.553 307.509C140.428 300.18 143.776 270.093 143.776 270.093L150.679 269.561L153.418 275.295C153.418 275.295 237.502 298.318 246.086 306.238C254.702 314.13 236.071 329.114 238.415 335.32C240.759 341.527 247.487 342.561 248.37 343.27C249.253 343.98 242.951 350.659 245.112 352.403C247.274 354.147 272.371 383.825 280.913 391.917C285.165 395.945 297.644 393.664 297.644 393.664Z" fill="#11405C"/>
<path d="M157.034 269.561L156.838 277.25C156.838 277.25 232.662 302.277 239.337 311.231C246.011 320.185 167.342 399.105 167.342 399.105L151.36 391.555L185.188 332.38C185.188 332.38 147.542 335.987 131.636 325.189C115.73 314.392 117.719 270.411 117.719 270.411L157.034 269.561Z" fill="#2F627C"/>
<path d="M206.399 328.729C195.866 335.586 166.56 375.626 155.052 393.3L151.358 391.562L185.18 332.394C185.18 332.394 147.531 336 131.64 325.183C115.718 314.396 117.727 270.418 117.727 270.418L148.718 269.975C136.51 274.083 121.806 275.709 125.764 281.738C130.635 289.097 135.536 294.121 132.279 300.712C129.021 307.273 116.54 323.085 153.437 321.755C190.333 320.454 221.59 306.238 206.673 316.228C191.756 326.247 188.772 329.409 195.013 328.611C201.254 327.813 219.977 319.893 206.399 328.729ZM169.664 144.264C169.697 144.373 169.721 144.485 169.753 144.595C168.158 139.521 165.54 134.824 162.014 130.781C155.809 123.668 146.41 124.097 140.159 127.366C140.168 127.36 140.176 127.354 140.184 127.348C140.167 127.358 140.152 127.369 140.135 127.378C139.874 127.514 139.634 127.667 139.385 127.813C137.475 128.921 135.741 130.336 134.307 132.015C132.675 133.935 131.462 136.154 130.403 138.394C129.326 140.629 128.448 142.939 127.204 145.021C126.576 146.053 125.869 147.038 124.998 147.861C124.143 148.676 123.103 149.38 122.075 150.05C117.94 152.757 113.026 154.134 108.269 155.755C105.848 156.556 103.523 157.634 101.372 158.965C99.2688 160.354 97.2599 161.94 95.7578 163.931C97.4292 162.084 99.4701 160.602 101.628 159.366C103.797 158.14 106.104 157.159 108.503 156.459C110.93 155.76 113.338 154.993 115.73 154.138C118.111 153.271 120.481 152.25 122.62 150.849C123.679 150.138 124.721 149.421 125.664 148.505C126.598 147.6 127.338 146.541 127.982 145.455C129.254 143.266 130.12 140.939 131.084 138.684C131.915 136.741 132.878 134.856 134.09 133.126C130.882 138.517 129.738 145.192 127.103 148.517C121.034 156.177 109 155.291 98.9228 162.52C88.4881 170.005 87.2936 187.96 100.666 198.463C113.27 208.36 141.784 205.609 157.975 188.272C168.491 177.013 172.505 164.172 171.362 152.488C171.957 157.556 171.731 162.697 170.555 167.645C169.626 171.466 168.182 175.165 166.236 178.602C164.29 182.037 161.89 185.232 159.131 188.101C156.373 190.968 153.385 193.653 150.075 195.912C146.791 198.203 143.204 200.075 139.459 201.564C135.712 203.051 131.779 204.113 127.764 204.707C123.757 205.321 119.659 205.53 115.6 205.114C123.691 206.283 132.081 205.105 139.751 202.279C147.441 199.416 154.301 194.619 159.859 188.749C165.405 182.87 169.615 175.654 171.285 167.802C172.99 159.975 172.332 151.749 169.664 144.264Z" fill="#11405C"/>
<path d="M159.385 180.343L160.56 175.746L188.863 197.022C188.863 197.022 183.076 220.768 181.991 222.875C180.906 224.982 164.436 215.501 164.436 215.501L159.385 180.343Z" fill="#FFC439"/>
<path d="M171.542 199.044C171.542 199.044 181.984 215.152 181.375 223.161C179.213 223.338 172.242 219.762 167.95 217.457L164.783 187.311L171.542 199.044ZM188.864 197.034C188.864 197.034 186.368 207.231 184.358 214.826L173.125 185.213L188.864 197.034Z" fill="#DBA12C"/>
<path d="M115.8 273.048C116.479 277.305 177.379 279.601 188.501 275.65C199.624 271.699 181.991 266.998 181.991 263.839C181.991 260.68 174.938 227.623 174.938 226.499C174.938 225.374 175.099 217.307 174.556 212.824C174.014 208.341 167.433 199.391 167.433 199.391C167.433 199.391 163.002 176.49 160.56 175.746C158.119 175.002 134.518 177.376 132.077 177.763C129.635 178.15 112.297 251.077 115.8 273.048Z" fill="#FFC439"/>
<path d="M131.357 178.888C131.662 178.179 131.905 177.794 132.088 177.765C134.523 177.381 158.117 175.016 160.552 175.755C161.13 175.933 161.831 177.322 162.531 179.39C162.531 179.42 162.531 179.42 162.531 179.449C162.531 183.794 160.704 188.405 153.55 189.705C143.291 191.567 135.223 183.705 131.357 178.888ZM133.58 268.822C134.554 270.862 144.478 276.063 159.517 277.659C139.181 277.511 116.197 275.649 115.801 273.049C114.127 262.586 117.201 240.509 121.129 220.235L136.685 198.128C136.685 198.128 131.388 231.288 130.87 233.15C130.322 234.982 122.529 254.932 122.529 254.932L174.556 250.912L180.431 254.518C181.345 259.217 181.984 262.881 181.984 263.827C181.984 265.719 188.377 268.201 191.026 270.713C180.918 272.221 161.861 272.427 158.086 271.068C153.763 269.502 156.503 263.561 151.602 264.212C146.731 264.892 132.21 266.074 133.58 268.822Z" fill="#DBA12C"/>
<path d="M174.124 158.508C174.124 158.508 210.598 212.028 211.831 219.188C213.064 226.348 209.211 228.107 203.421 229.328C197.632 230.548 189.747 224.06 189.747 224.06L166.881 162.172L174.124 158.508Z" fill="#D7A28E"/>
<path d="M212.972 234.461H170.802C168.943 234.461 167.164 235.924 166.829 237.729L161.995 263.76C161.66 265.565 162.895 267.029 164.754 267.029H206.924C208.783 267.029 210.562 265.565 210.897 263.76L215.731 237.729C216.067 235.924 214.831 234.461 212.972 234.461Z" fill="#CDEEFF"/>
<path d="M214.402 235.546H172.233C170.374 235.546 168.595 237.009 168.259 238.814L163.426 264.845C163.09 266.65 164.326 268.113 166.185 268.113H208.355C210.214 268.113 211.993 266.65 212.328 264.845L217.162 238.814C217.497 237.009 216.261 235.546 214.402 235.546Z" fill="#91C4F6"/>
<path d="M167.621 268.113C167.621 268.113 209.03 268.215 209.104 268.113C209.178 268.011 192.954 265.881 167.621 268.113Z" fill="#549BEC"/>
<path d="M126.898 219.052L117.752 248.345L158.083 246.535C158.083 246.535 155.199 258.074 155.47 258.864C155.741 259.655 116.704 269.972 101.513 264.442C86.3217 258.911 103.96 215.855 103.96 215.855L126.898 219.052Z" fill="#D7A28E"/>
<path d="M105.401 251.598C104.044 253.198 119.417 249.237 116.071 247.988C112.726 246.739 106.938 249.785 105.401 251.598Z" fill="#C18C7C"/>
<path d="M132.076 177.763L115.334 184.688C115.334 184.688 96.63 218.266 98.8002 220.373C100.97 222.48 125.43 229.986 125.43 229.986L138.949 196.847C138.949 196.847 142.927 188.527 132.076 177.763Z" fill="#FFC439"/>
<path d="M159.311 245.969C162.847 244.603 166.481 244.839 167.996 245.024C170.568 245.342 179.166 249.224 179.166 249.224C179.166 249.224 178.828 250.443 178.449 250.804C177.834 251.391 176.226 251.399 174.555 250.912C175.637 251.453 177.52 252.629 177.52 252.629C177.52 252.629 176.76 253.917 176.284 254.151C175.647 254.465 174.231 254.349 173.187 254.008C173.912 254.469 175.183 255.18 175.183 255.18C175.183 255.18 174.163 256.535 173.655 256.698C172.691 257.009 171.017 256.527 169.597 256.027C170.57 256.528 172.016 257.755 172.016 257.755C172.016 257.755 170.858 258.787 170.401 258.946C168.627 259.566 163.257 257.506 163.257 257.506C159.774 261.564 156.2 259.061 153.758 259.174C153.167 259.195 152.645 250.136 152.645 250.136C152.645 250.136 156.669 246.982 159.311 245.969Z" fill="#D7A28E"/>
<path d="M168.509 248.77C168.501 248.82 168.85 248.91 169.401 249.081C169.953 249.253 170.71 249.505 171.537 249.815C173.191 250.432 174.512 250.995 174.555 250.913C174.597 250.832 173.333 250.131 171.659 249.506C170.823 249.192 170.04 248.971 169.462 248.854C168.884 248.738 168.515 248.729 168.509 248.77ZM167.473 251.849C167.461 251.896 167.781 252.016 168.296 252.211C168.86 252.428 169.546 252.693 170.305 252.986C171.872 253.598 173.148 254.092 173.188 254.008C173.227 253.926 172.01 253.295 170.432 252.678C169.643 252.37 168.912 252.128 168.372 251.988C167.83 251.848 167.484 251.807 167.473 251.849ZM166.797 254.951C166.76 255.036 167.475 255.408 168.393 255.784C169.311 256.159 170.085 256.395 170.122 256.311C170.158 256.226 169.444 255.854 168.526 255.479C167.607 255.103 166.833 254.867 166.797 254.951Z" fill="#C18C7C"/>
<path d="M155.887 152.803L171.135 165.151C171.807 165.696 172.905 165.688 173.587 165.133L179.881 160.228C180.563 159.673 180.571 158.783 179.899 158.238L164.651 145.89C163.979 145.346 162.881 145.354 162.199 145.908L155.905 150.814C155.223 151.368 155.215 152.259 155.887 152.803Z" fill="#91C4F6"/>
<path d="M154.042 152.803L169.29 165.151C169.962 165.696 171.06 165.688 171.742 165.133L178.036 160.228C178.718 159.673 178.726 158.783 178.054 158.238L162.806 145.89C162.134 145.346 161.036 145.354 160.354 145.908L154.06 150.814C153.378 151.368 153.37 152.259 154.042 152.803Z" fill="#CDEEFF"/>
<path d="M169.352 148.885C169.352 148.885 169.539 147.094 167.125 147.687C164.709 148.281 164.796 149.899 165.557 150.16C166.318 150.422 166.785 150.645 167.853 149.808C167.853 149.808 167.345 150.856 168.152 151.273C168.96 151.689 169.792 151.332 169.792 151.332C169.792 151.332 169.142 152.172 169.409 152.544C169.676 152.917 170.817 153.2 171.805 152.558C171.805 152.558 171.417 153.676 172.856 153.767C173.818 153.828 174.146 153.614 174.146 153.614L175.237 154.558C175.237 154.558 176.104 152.264 173.546 151.493C173.546 151.493 173.427 149.814 171.478 150.378C171.478 150.378 171.54 148.068 169.352 148.885Z" fill="#D7A28E"/>
<path d="M169.344 148.905C169.365 148.979 168.984 149.126 168.574 149.388C168.159 149.646 167.877 149.924 167.82 149.886C167.753 149.848 167.975 149.458 168.431 149.175C168.884 148.886 169.33 148.842 169.344 148.905ZM171.508 150.333C171.516 150.37 171.417 150.421 171.266 150.508C171.114 150.595 170.906 150.721 170.677 150.865C170.218 151.151 169.839 151.387 169.792 151.332C169.746 151.279 170.058 150.948 170.535 150.65C170.773 150.501 171.009 150.392 171.193 150.342C171.378 150.292 171.502 150.301 171.508 150.333ZM173.546 151.493C173.549 151.531 173.437 151.569 173.274 151.649C173.11 151.73 172.893 151.861 172.662 152.026C172.2 152.354 171.844 152.663 171.789 152.614C171.736 152.569 172.015 152.17 172.508 151.82C172.752 151.644 173.009 151.524 173.21 151.479C173.413 151.435 173.545 151.461 173.546 151.493Z" fill="#C18C7C"/>
<path d="M134.097 177.227L158.978 175.383C158.978 175.383 160.846 185.047 153.033 187.285C145.22 189.524 135.589 183.547 134.097 177.227Z" fill="#D7A28E"/>
<path d="M155.18 181.792C151.568 182.624 140.542 180.544 141.3 177.763C141.997 175.211 143.104 161.23 142.929 155.515L156.378 163.78C156.366 165.075 156.175 174.066 155.18 181.792Z" fill="#D7A28E"/>
<path d="M140.99 148.57C141.171 151.519 141.911 154.366 142.337 156.252C143.948 163.462 158.692 167.326 159.578 167.101C162.824 166.277 170.096 160.889 168.304 155.05C166.214 148.251 164.536 147.689 164.255 141.075C164.233 140.425 164.11 139.869 163.914 139.361C161.797 139.932 155.667 139.622 154.028 137.844C153.703 140.466 146.279 142.887 142.77 142.556C142.54 144.151 144.624 150.582 142.916 150.835C142.508 150.901 141.742 150.009 140.99 148.57Z" fill="#D7A28E"/>
<path d="M159.581 167.106C159.576 167.393 156.898 167.62 153.731 166.666C152.155 166.196 150.823 165.449 149.996 164.749C149.161 164.04 148.857 163.42 148.979 163.326C149.115 163.212 149.621 163.598 150.494 164.068C151.371 164.539 152.626 165.1 154.101 165.54C157.042 166.434 159.61 166.744 159.581 167.106Z" fill="#C18C7C"/>
<path d="M143.067 155.6C139.71 158.295 135.807 150.429 138.954 148.621C139.863 148.099 141.747 147.699 142.479 149.502C143.268 151.448 143.802 155.01 143.067 155.6Z" fill="#D7A28E"/>
<path d="M140.042 150.027C140.907 150.524 142.603 152.354 141.835 153.977C141.835 153.977 141.718 152.958 141.084 152.402L139.607 151.939L140.996 151.682L140.042 150.027ZM157.886 149.67C157.266 149.994 159.605 152.081 158.36 152.466C157.116 152.851 159.254 153.086 159.387 152.072C159.519 151.059 158.436 149.383 157.886 149.67Z" fill="#11405C"/>
<path d="M153.36 148.373C153.734 149.04 153.516 149.856 152.873 150.195C152.23 150.534 151.407 150.268 151.034 149.601C150.66 148.933 150.878 148.117 151.521 147.778C152.163 147.439 152.987 147.705 153.36 148.373Z" fill="#11405C"/>
<path d="M153.032 148.18C153.141 148.408 153.07 148.664 152.876 148.752C152.68 148.839 152.434 148.726 152.325 148.498C152.217 148.27 152.287 148.013 152.482 147.926C152.677 147.839 152.923 147.952 153.032 148.18Z" fill="white"/>
<path d="M147.469 147.77C147.111 147.897 146.568 146.998 146.856 146.756C146.856 146.756 149.755 143.297 153.073 143.992C153.073 143.992 153.348 144.655 153.329 144.886C153.298 145.251 151.72 145.417 151.31 145.507C150.077 145.779 147.469 147.77 147.469 147.77Z" fill="#11405C"/>
<path d="M162.429 146.245C162.512 147.001 161.991 147.675 161.263 147.75C160.536 147.826 159.879 147.275 159.795 146.519C159.712 145.764 160.234 145.09 160.961 145.015C161.688 144.939 162.346 145.49 162.429 146.245Z" fill="#11405C"/>
<path d="M162.201 145.946C162.212 146.196 162.046 146.407 161.832 146.416C161.617 146.425 161.434 146.228 161.423 145.978C161.412 145.726 161.577 145.516 161.792 145.507C162.007 145.498 162.19 145.694 162.201 145.946Z" fill="white"/>
<path d="M162.808 143.133C163.085 143.081 163.075 142.389 162.832 142.314C162.832 142.314 158.405 141.904 158.195 142.444C158.195 142.444 158.087 143.118 158.134 143.302C158.208 143.592 158.563 143.849 159.021 143.764L162.808 143.133Z" fill="#11405C"/>
<path d="M156.388 157.782C160.558 158.017 160.827 156.487 162.547 156.319C163.488 156.227 164.068 156.955 163.837 157.719C163.837 157.719 162.726 161.312 157.859 160.616C154.791 160.178 155.468 157.731 156.388 157.782Z" fill="white"/>
<path d="M332.639 77.9629H220.261C214.202 77.9629 209.275 82.7327 209.275 88.6277V147.011L186.877 158.507C187.608 158.453 199.725 158.199 209.317 157.997C209.814 163.45 214.533 167.724 220.261 167.724H332.639C338.712 167.724 343.625 162.941 343.625 157.046V88.6275C343.625 82.7327 338.712 77.9629 332.639 77.9629Z" fill="#CDEEFF"/>
<path d="M274.076 125.462V146.319C274.076 149.831 271.151 152.67 267.545 152.67H234C230.383 152.67 227.458 149.831 227.458 146.319V119.314C227.458 115.813 230.383 112.974 234 112.974H262.454C262.301 113.486 261.905 113.924 261.311 114.095C259.706 114.554 259.706 116.763 261.311 117.222C262.443 117.553 262.883 118.877 262.168 119.784C261.916 120.093 261.817 120.435 261.817 120.776C261.817 121.801 262.872 122.73 264.059 122.313C265.17 121.929 266.335 122.751 266.302 123.893C266.258 125.516 268.424 126.199 269.37 124.865C269.7 124.384 270.227 124.149 270.755 124.149C271.283 124.149 271.811 124.384 272.141 124.865C272.625 125.548 273.416 125.697 274.076 125.462ZM282.244 125.294H316.356C317.343 125.294 318.144 124.517 318.144 123.557C318.144 122.598 317.343 121.821 316.356 121.821H282.244C281.256 121.821 280.455 122.598 280.455 123.557C280.455 124.517 281.256 125.294 282.244 125.294ZM322.119 125.294H326.983C327.97 125.294 328.771 124.517 328.771 123.557C328.771 122.598 327.97 121.821 326.983 121.821H322.119C321.131 121.821 320.33 122.598 320.33 123.557C320.33 124.517 321.131 125.294 322.119 125.294ZM289.694 140.343H282.244C281.256 140.343 280.455 141.12 280.455 142.079C280.455 143.039 281.256 143.817 282.244 143.817H289.694C290.682 143.817 291.483 143.039 291.483 142.079C291.483 141.12 290.682 140.343 289.694 140.343ZM308.177 140.343H295.458C294.471 140.343 293.67 141.12 293.67 142.079C293.67 143.039 294.47 143.817 295.458 143.817H308.177C309.165 143.817 309.966 143.039 309.966 142.079C309.966 141.12 309.165 140.343 308.177 140.343ZM326.983 131.082H306.388C305.401 131.082 304.6 131.86 304.6 132.818C304.6 133.778 305.401 134.554 306.388 134.554H326.983C327.97 134.554 328.771 133.778 328.771 132.818C328.771 131.86 327.97 131.082 326.983 131.082ZM282.244 134.554H300.624C301.613 134.554 302.414 133.778 302.414 132.818C302.414 131.86 301.613 131.082 300.624 131.082H282.244C281.256 131.082 280.455 131.86 280.455 132.818C280.455 133.778 281.256 134.554 282.244 134.554Z" fill="white"/>
<path d="M235.768 125.743L250.635 122.677L265.502 124.795L250.897 129.684L235.768 125.743Z" fill="#FFC439"/>
<path d="M251.301 144.381L265.771 140.951L265.502 124.795L250.846 127.823L251.301 144.381Z" fill="#DBA12C"/>
<path opacity="0.5" d="M242.42 124.372L247.072 123.439L260.248 125.796L260.408 129.043L258.576 129.592L258.237 129.063L258.059 129.813L256.661 130.282L256.615 126.806L242.42 124.372Z" fill="#CDEEFF"/>
<path opacity="0.5" d="M258.25 142.739L258.242 140.219L259.139 140.05L259.337 140.358L259.44 139.927L261.788 139.28L262.064 141.833L258.25 142.739Z" fill="#CDEEFF"/>
<path d="M235.768 125.744L236.245 142.339L251.301 144.381L250.846 127.823L235.768 125.744Z" fill="#FFC439"/>
<path d="M235.768 125.744L250.845 127.823C250.845 127.823 246.141 128.36 243.017 127.823C239.893 127.285 235.768 125.744 235.768 125.744Z" fill="#DBA12C"/>
<path d="M277.186 114.594C276.415 114.374 276.112 113.47 276.603 112.852C277.298 111.974 276.387 110.757 275.313 111.128C274.555 111.39 273.763 110.831 273.786 110.051C273.817 108.944 272.343 108.479 271.698 109.393C271.244 110.036 270.265 110.036 269.811 109.393C269.167 108.479 267.693 108.944 267.724 110.051C267.746 110.831 266.955 111.389 266.197 111.128C265.122 110.757 264.211 111.974 264.907 112.852C265.398 113.47 265.095 114.374 264.324 114.594C263.23 114.907 263.23 116.412 264.324 116.725C265.095 116.945 265.398 117.849 264.907 118.467C264.211 119.345 265.122 120.562 266.197 120.191C266.955 119.929 267.746 120.488 267.724 121.268C267.693 122.375 269.167 122.84 269.811 121.926C270.265 121.283 271.244 121.283 271.698 121.926C272.343 122.84 273.817 122.375 273.786 121.268C273.763 120.488 274.555 119.93 275.313 120.191C276.387 120.562 277.298 119.345 276.603 118.467C276.112 117.849 276.415 116.945 277.186 116.725C278.28 116.412 278.28 114.907 277.186 114.594Z" fill="white"/>
<path d="M270.484 118.116C269.951 118.07 269.366 117.861 268.973 117.546L269.428 116.962C269.838 117.239 270.248 117.427 270.72 117.427C271.287 117.427 271.567 117.187 271.567 116.783C271.567 115.795 269.191 115.937 269.191 114.529C269.191 113.833 269.698 113.339 270.484 113.219V112.455H271.183V113.204C271.742 113.264 272.126 113.496 272.449 113.788L271.934 114.289C271.61 114.035 271.34 113.893 270.921 113.893C270.449 113.893 270.161 114.102 270.161 114.492C270.161 115.39 272.536 115.211 272.536 116.723C272.536 117.434 272.047 117.958 271.183 118.093V118.864H270.484V118.116H270.484Z" fill="#CDEEFF"/>
<path d="M233.384 99.4576C230.123 99.4576 227.458 97.0789 227.458 93.7045C227.458 90.3472 230.123 87.9685 233.384 87.9685C236.677 87.9685 239.293 90.3472 239.293 93.7045C239.293 97.0789 236.661 99.4576 233.384 99.4576ZM233.384 97.4492C235.469 97.4492 236.909 95.9864 236.909 93.7045C236.909 91.4227 235.469 89.9926 233.384 89.9926C231.282 89.9926 229.842 91.4227 229.842 93.7045C229.842 95.9864 231.282 97.4492 233.384 97.4492ZM245.357 88.1295C248.138 88.1295 249.528 89.6879 249.528 91.568C249.528 92.9339 248.751 94.3156 246.896 94.7971L249.661 99.345H246.979L244.431 94.9738H243.339V99.345H241.021V88.1295H245.357ZM245.274 89.9926H243.339V93.2872H245.274C246.566 93.2872 247.145 92.6278 247.145 91.6164C247.145 90.6194 246.566 89.9926 245.274 89.9926ZM261.766 93.7529C261.766 97.143 259.365 99.3449 255.675 99.3449H251.636V88.1294H255.675C259.366 88.1295 261.766 90.3472 261.766 93.7529ZM255.592 97.4335C258.025 97.4335 259.399 96.0832 259.399 93.7529C259.399 91.4226 258.025 90.0254 255.592 90.0254H253.954V97.4335H255.592ZM270.214 89.9442H265.828V92.7572H269.717V94.5405H265.828V97.5132H270.214V99.3449H263.511V88.1124H270.214V89.9442ZM276.657 88.1295C279.438 88.1295 280.828 89.6879 280.828 91.568C280.828 92.9339 280.05 94.3156 278.196 94.7971L280.96 99.345H278.279L275.73 94.9738H274.638V99.345H272.321V88.1295H276.657ZM276.574 89.9926H274.638V93.2872H276.574C277.865 93.2872 278.445 92.6278 278.445 91.6164C278.445 90.6194 277.865 89.9926 276.574 89.9926ZM296.759 88.1125V99.345H294.441L289.195 91.6478V99.345H286.877V88.1125H289.195L294.441 95.8254V88.1125H296.759ZM304.412 99.4576C301.151 99.4576 298.486 97.0789 298.486 93.7045C298.486 90.3472 301.151 87.9685 304.412 87.9685C307.705 87.9685 310.321 90.3472 310.321 93.7045C310.321 97.0789 307.689 99.4576 304.412 99.4576ZM304.412 97.4492C306.497 97.4492 307.937 95.9864 307.937 93.7045C307.937 91.4227 306.497 89.9926 304.412 89.9926C302.31 89.9926 300.87 91.4227 300.87 93.7045C300.87 95.9864 302.31 97.4492 304.412 97.4492ZM311.271 88.1295H313.754L315.79 96.8382L318.14 88.1295H320.723L322.94 96.7898L324.993 88.1295H327.492L324.264 99.345H321.533L319.365 91.3587L317.097 99.345L314.383 99.3608L311.271 88.1295Z" fill="#91C4F6"/>
<path d="M187.342 97.8921C183.899 93.0831 179.502 97.273 179.502 97.273C179.502 97.273 175.104 93.0831 171.661 97.8921C168.028 102.966 174.912 110.768 179.502 112.872C184.091 110.768 190.975 102.966 187.342 97.8921Z" fill="#91C4F6"/>
<path d="M119.014 109.586C116.751 106.426 113.862 109.179 113.862 109.179C113.862 109.179 110.972 106.426 108.71 109.586C106.322 112.92 110.846 118.047 113.862 119.43C116.877 118.047 121.401 112.92 119.014 109.586Z" fill="#CDEEFF"/>
<path d="M237.727 224.815L245.898 224.792L245.942 239.928L237.772 239.952C236.445 239.955 235.365 238.912 235.362 237.623L235.329 227.157C235.325 225.867 236.399 224.819 237.727 224.815Z" fill="#91C4F6"/>
<path d="M263.033 229.635H262.954L262.945 227.026C262.943 225.643 261.784 224.524 260.358 224.529L253.116 224.549C253.116 224.549 256.053 220.553 256.045 217.996C256.039 215.709 255.924 212.679 252.447 212.687C252.447 212.687 251.187 213.445 251.197 216.883C251.206 220.054 244.478 224.777 244.478 224.777L244.524 240.424C244.524 240.424 246.003 241.749 248.321 241.743L258.802 241.714C260.286 241.71 261.486 240.539 261.481 239.098L261.477 237.515C262.349 237.51 263.055 236.822 263.051 235.975L263.047 234.134C263.57 234.134 263.993 233.719 263.992 233.211L263.984 230.553C263.982 230.044 263.556 229.634 263.033 229.635Z" fill="#CDEEFF"/>
</svg>
