<svg width="57" height="57" viewBox="0 0 57 57" fill="none" xmlns="http://www.w3.org/2000/svg">
<path d="M44.6934 13.149L32.6301 6.17237C30.3201 4.84237 26.7034 4.84237 24.3934 6.17237L12.2134 13.1957C7.38339 16.4624 7.10339 16.9524 7.10339 22.1557V34.8257C7.10339 40.029 7.38339 40.5424 12.3067 43.8557L24.3701 50.8324C25.5367 51.509 27.0301 51.8357 28.5001 51.8357C29.9701 51.8357 31.4634 51.509 32.6067 50.8324L44.7867 43.809C49.6167 40.5424 49.8967 40.0524 49.8967 34.849V22.1557C49.8967 16.9524 49.6167 16.4624 44.6934 13.149Z" fill="#E9F1FC"/>
<path fill-rule="evenodd" clip-rule="evenodd" d="M21.6865 16.7525C22.4731 16.2339 23.4951 15.9583 24.72 15.9583H32.28C33.505 15.9583 34.527 16.2339 35.3136 16.7525C36.1079 17.2762 36.6139 18.0174 36.8365 18.8463C37.2748 20.4778 36.6016 22.3232 35.2245 23.5715C35.2245 23.5715 35.2246 23.5714 35.2245 23.5715L29.8004 28.5007L35.2243 33.4283C35.2242 33.4282 35.2245 33.4285 35.2243 33.4283C36.6012 34.6766 37.2747 36.5223 36.8365 38.1536C36.6139 38.9826 36.1079 39.7238 35.3136 40.2475C34.527 40.7661 33.505 41.0416 32.28 41.0416H24.72C23.4951 41.0416 22.4731 40.7661 21.6865 40.2475C20.8922 39.7238 20.3862 38.9826 20.1635 38.1536C19.7254 36.5224 20.3983 34.6774 21.7749 33.4291L27.1981 28.5008L25.1233 26.616C24.7657 26.291 24.7391 25.7376 25.0641 25.3799C25.389 25.0223 25.9424 24.9957 26.3001 25.3207L28.4991 27.3185L34.0482 22.2758C35.0394 21.3774 35.382 20.1771 35.1465 19.3003C35.0322 18.8751 34.7792 18.4963 34.3503 18.2135C33.9137 17.9257 33.2484 17.7083 32.28 17.7083H24.72C23.7516 17.7083 23.0863 17.9257 22.6498 18.2135C22.2209 18.4963 21.9678 18.8751 21.8536 19.3003C21.6181 20.1771 21.9599 21.3766 22.951 22.275C23.3091 22.5995 23.3362 23.1529 23.0117 23.5109C22.6871 23.869 22.1338 23.8962 21.7757 23.5716C20.3985 22.3233 19.7253 20.4779 20.1635 18.8463C20.3862 18.0174 20.8922 17.2762 21.6865 16.7525ZM28.4993 29.683L22.9518 34.7242C21.9607 35.6226 21.6181 36.8229 21.8536 37.6997C21.9678 38.1249 22.2209 38.5037 22.6498 38.7864C23.0863 39.0743 23.7516 39.2916 24.72 39.2916H32.28C33.2484 39.2916 33.9137 39.0743 34.3503 38.7864C34.7792 38.5037 35.0322 38.1249 35.1465 37.6997C35.382 36.8229 35.0402 35.6233 34.0491 34.725L28.4993 29.683Z" fill="#155096"/>
</svg>
